<?xml version="1.0" encoding="utf-8"?>
<!-- Generator: Adobe Illustrator 16.0.0, SVG Export Plug-In . SVG Version: 6.00 Build 0)  -->
<!DOCTYPE svg PUBLIC "-//W3C//DTD SVG 1.1//EN" "http://www.w3.org/Graphics/SVG/1.1/DTD/svg11.dtd">
<svg version="1.1" id="Layer_1" xmlns="http://www.w3.org/2000/svg" xmlns:xlink="http://www.w3.org/1999/xlink" x="0px" y="0px"
	 width="394px" height="360.19px" viewBox="217.5 100 394 360.19" enable-background="new 217.5 100 394 360.19"
	 xml:space="preserve">
<path fill="#FFFFFF" d="M400.588,409.812c0,27.783,22.596,50.379,50.379,50.379s50.379-22.595,50.379-50.379
	c0-27.765-22.595-50.361-50.379-50.361C423.184,359.45,400.588,382.045,400.588,409.812z M428.92,409.814
	c0-12.147,9.898-22.029,22.047-22.029s22.047,9.882,22.047,22.029c0,12.148-9.898,22.047-22.047,22.047
	S428.92,421.963,428.92,409.814z M238.997,409.812c0,27.783,22.595,50.379,50.379,50.379c27.783,0,50.379-22.595,50.379-50.379
	c0-27.765-22.595-50.361-50.379-50.361C261.593,359.45,238.997,382.045,238.997,409.812z M267.329,409.814
	c0-12.147,9.899-22.029,22.047-22.029c12.148,0,22.047,9.882,22.047,22.029c0,12.148-9.898,22.047-22.047,22.047
	C277.229,431.861,267.329,421.963,267.329,409.814z M479.5,340.5h-215c-6.938,0-12.97-4.757-14.587-11.504l-32-133.5
	c-1.071-4.467-0.036-9.178,2.809-12.785c2.845-3.607,7.185-5.711,11.778-5.711h218.467c4.656,0,9.049,2.162,11.888,5.853
	c2.84,3.69,3.805,8.49,2.611,12.991l-22,83C441.723,285.42,435.771,290,428.967,290H311.5c-8.284,0-15-6.716-15-15s6.716-15,15-15
	h105.925l14.048-53H251.521l24.809,103.5h191.745l54.965-199.484C524.832,104.508,530.75,100,537.5,100h59c8.284,0,15,6.716,15,15
	s-6.716,15-15,15h-47.574l-54.965,199.484C492.168,335.992,486.25,340.5,479.5,340.5z"/>
</svg>
