<?xml version="1.0" encoding="utf-8"?>
<!-- Generator: Adobe Illustrator 16.0.0, SVG Export Plug-In . SVG Version: 6.00 Build 0)  -->
<svg version="1.2" baseProfile="tiny" id="Layer_1" xmlns="http://www.w3.org/2000/svg" xmlns:xlink="http://www.w3.org/1999/xlink"
	 x="0px" y="0px" width="46.333px" height="40.234px" viewBox="0 0 46.333 40.234" overflow="scroll" xml:space="preserve">
<g>
	<path d="M21.803,30.34c0.039,0.036,0.083,0.063,0.124,0.095c0.05,0.04,0.099,0.082,0.152,0.117
		c0.059,0.038,0.121,0.067,0.182,0.099c0.052,0.026,0.102,0.056,0.156,0.078c0.072,0.029,0.146,0.048,0.22,0.068
		c0.048,0.013,0.095,0.031,0.145,0.041c0.127,0.024,0.255,0.039,0.384,0.039s0.257-0.014,0.384-0.039
		c0.05-0.01,0.096-0.028,0.145-0.041c0.074-0.021,0.148-0.04,0.22-0.068c0.054-0.022,0.104-0.051,0.156-0.078
		c0.062-0.032,0.123-0.061,0.182-0.099c0.054-0.035,0.102-0.077,0.152-0.117c0.041-0.033,0.085-0.059,0.124-0.095l11.378-10.596
		c0.808-0.752,0.853-2.018,0.1-2.827c-0.751-0.808-2.017-0.852-2.827-0.1l-8.015,7.464V2c0-1.104-0.896-2-2-2s-2,0.896-2,2v22.281
		l-8.015-7.464c-0.809-0.752-2.074-0.709-2.827,0.1c-0.753,0.809-0.708,2.074,0.1,2.827L21.803,30.34z"/>
	<path d="M39.887,24.37h-2.709c-1.104,0-2,0.896-2,2s0.896,2,2,2h2.709c1.349,0,2.446,1.097,2.446,2.446v2.972
		c0,1.349-1.097,2.446-2.446,2.446H6.446C5.097,36.234,4,35.137,4,33.788v-2.972c0-1.349,1.097-2.446,2.446-2.446h2.816
		c1.104,0,2-0.896,2-2s-0.896-2-2-2H6.446C2.892,24.37,0,27.262,0,30.816v2.972c0,3.555,2.892,6.446,6.446,6.446h33.441
		c3.555,0,6.446-2.892,6.446-6.446v-2.972C46.333,27.262,43.442,24.37,39.887,24.37z"/>
</g>
</svg>
