<?xml version="1.0" encoding="utf-8"?>
<!-- Generator: Adobe Illustrator 16.0.0, SVG Export Plug-In . SVG Version: 6.00 Build 0)  -->
<!DOCTYPE svg PUBLIC "-//W3C//DTD SVG 1.1//EN" "http://www.w3.org/Graphics/SVG/1.1/DTD/svg11.dtd">
<svg version="1.1" id="Layer_1" xmlns="http://www.w3.org/2000/svg" xmlns:xlink="http://www.w3.org/1999/xlink" x="0px" y="0px"
	 width="237.805px" height="279.771px" viewBox="277.097 97.92 237.805 279.771"
	 enable-background="new 277.097 97.92 237.805 279.771" xml:space="preserve">
<path fill="#FFFFFF" d="M405.95,102.076c5.431,5.495,5.377,14.352-0.117,19.783l-20.74,20.496H396
	c65.512,0,118.902,52.526,118.902,117.668c0,65.142-53.391,117.669-118.902,117.669c-65.511,0-118.903-52.527-118.903-117.669
	c0-7.725,6.263-13.989,13.989-13.989s13.988,6.264,13.988,13.989c0,49.38,40.553,89.691,90.926,89.691s90.926-40.312,90.926-89.691
	s-40.553-89.69-90.926-89.69h-10.907l20.74,20.496c5.494,5.43,5.548,14.286,0.117,19.782c-5.431,5.495-14.288,5.547-19.783,0.116
	l-44.963-44.435c-2.659-2.627-4.156-6.211-4.156-9.949c0-3.739,1.497-7.322,4.156-9.95l44.963-44.434
	C391.662,96.528,400.52,96.581,405.95,102.076z"/>
</svg>
